# xmcd
#
# Track frame offsets:
# 150
# 18253
# 34800
# 47099
# 56477
# 73996
# 92953
# 106698
# 123327
# 140109
#
# Disc length: 2083 seconds
#
#
# Revision: 0
# Processed by: cddbd v1.5PL3 Copyright (c) Steve Scherf et al.
# Submitted via: FreeRIP 2.53 
#
DISCID=8c08210a
DTITLE=Tillis, Pam - Pam Tillis Collection
DYEAR=1900
DGENRE=
TTITLE0=Maybe It Was Memphis
TTITLE1=One Of Those Things
TTITLE2=I Thought I'd About Had It With Love
TTITLE3=There Goes My Love
TTITLE4=Sometimes A Stranger Will Do
TTITLE5=Those Memories Of You
TTITLE6=I Wish She Wouldn't Treat You That Way
TTITLE7=Tennessee Nights
TTITLE8=Five Minutes
TTITLE9=Goodbye Highway
EXTD=
EXTT0=
EXTT1=
EXTT2=
EXTT3=
EXTT4=
EXTT5=
EXTT6=
EXTT7=
EXTT8=
EXTT9=
PLAYORDER=
